<svg width="22" height="22" viewBox="0 0 22 22" fill="none" xmlns="http://www.w3.org/2000/svg">
<g clip-path="url(#clip0_1_12563)">
<path d="M5.95833 1.83398H16.0417C16.184 1.83398 16.3243 1.86712 16.4516 1.93076C16.5789 1.9944 16.6896 2.0868 16.775 2.20065L19.25 5.50065V19.2507C19.25 19.4938 19.1534 19.7269 18.9815 19.8988C18.8096 20.0707 18.5764 20.1673 18.3333 20.1673H3.66667C3.42355 20.1673 3.19039 20.0707 3.01849 19.8988C2.84658 19.7269 2.75 19.4938 2.75 19.2507V5.50065L5.225 2.20065C5.31038 2.0868 5.4211 1.9944 5.54839 1.93076C5.67567 1.86712 5.81603 1.83398 5.95833 1.83398ZM17.4167 7.33398H4.58333V18.334H17.4167V7.33398ZM16.9583 5.50065L15.5833 3.66732H6.41667L5.04167 5.50065H16.9583ZM8.25 9.16732V11.0007C8.25 11.73 8.53973 12.4295 9.05546 12.9452C9.57118 13.4609 10.2707 13.7507 11 13.7507C11.7293 13.7507 12.4288 13.4609 12.9445 12.9452C13.4603 12.4295 13.75 11.73 13.75 11.0007V9.16732H15.5833V11.0007C15.5833 12.2162 15.1004 13.382 14.2409 14.2416C13.3814 15.1011 12.2156 15.584 11 15.584C9.78442 15.584 8.61864 15.1011 7.75909 14.2416C6.89955 13.382 6.41667 12.2162 6.41667 11.0007V9.16732H8.25Z" fill="#202020"/>
</g>
<defs>
<clipPath id="clip0_1_12563">
<rect width="22" height="22" fill="white"/>
</clipPath>
</defs>
</svg>
