<svg width="28" height="28" viewBox="0 0 28 28" fill="none" xmlns="http://www.w3.org/2000/svg">
<g clip-path="url(#clip0_1_13693)">
<path d="M15.1673 23.2617C17.5208 22.9622 19.672 21.7778 21.1836 19.9492C22.6952 18.1207 23.4538 15.7851 23.3053 13.4173C23.1567 11.0495 22.1121 8.82705 20.3838 7.20176C18.6555 5.57647 16.3731 4.67026 14.0007 4.66732C11.6253 4.66555 9.33859 5.56955 7.60655 7.19511C5.8745 8.82067 4.82743 11.0455 4.67868 13.4162C4.52994 15.7869 5.29071 18.1251 6.80599 19.9545C8.32126 21.7838 10.477 22.9665 12.834 23.2617V16.334H10.5007V14.0007H12.834V12.071C12.834 10.5112 12.9973 9.94532 13.3007 9.37482C13.5995 8.81037 14.0613 8.34895 14.626 8.05065C15.0717 7.81148 15.6258 7.66798 16.5942 7.60615C16.978 7.58165 17.475 7.61198 18.0852 7.69948V9.91615H17.5007C16.4308 9.91615 15.9887 9.96632 15.725 10.1075C15.5677 10.1884 15.4396 10.3165 15.3587 10.4738C15.2187 10.7375 15.1673 10.9988 15.1673 12.0698V14.0007H18.084L17.5007 16.334H15.1673V23.2617ZM14.0007 25.6673C7.55715 25.6673 2.33398 20.4442 2.33398 14.0007C2.33398 7.55715 7.55715 2.33398 14.0007 2.33398C20.4442 2.33398 25.6673 7.55715 25.6673 14.0007C25.6673 20.4442 20.4442 25.6673 14.0007 25.6673Z" fill="black"/>
</g>
<defs>
<clipPath id="clip0_1_13693">
<rect width="28" height="28" fill="white"/>
</clipPath>
</defs>
</svg>
