<svg width="22" height="22" viewBox="0 0 22 22" fill="none" xmlns="http://www.w3.org/2000/svg">
<g clip-path="url(#clip0_1_12558)">
<path d="M9.16602 10.084V7.33398L13.7493 11.0006L9.16602 14.6673V11.9173H0.916016V10.084H9.16602ZM2.25252 13.7506H4.19952C4.83939 15.3265 6.00691 16.631 7.50237 17.4411C8.99783 18.2512 10.7283 18.5165 12.3978 18.1917C14.0672 17.8668 15.572 16.972 16.6546 15.6603C17.7372 14.3486 18.3304 12.7014 18.3327 11.0006C18.3336 9.29809 17.7421 7.64825 16.6597 6.3341C15.5772 5.01996 14.0712 4.12341 12.4 3.79823C10.7288 3.47305 8.99647 3.7395 7.50023 4.55188C6.00398 5.36426 4.83703 6.67195 4.19952 8.25065H2.25252C3.42035 4.53173 6.89452 1.83398 10.9993 1.83398C16.0621 1.83398 20.166 5.9379 20.166 11.0006C20.166 16.0634 16.0621 20.1673 10.9993 20.1673C6.89452 20.1673 3.42035 17.4696 2.25252 13.7506Z" fill="#202020"/>
</g>
<defs>
<clipPath id="clip0_1_12558">
<rect width="22" height="22" fill="white"/>
</clipPath>
</defs>
</svg>
