<svg width="20" height="20" viewBox="0 0 20 20" fill="none" xmlns="http://www.w3.org/2000/svg">
<path d="M15.5291 14.2329L19.4552 18.1581L18.1581 19.4552L14.2329 15.5291C12.7724 16.6999 10.9558 17.3366 9.08398 17.334C4.52998 17.334 0.833984 13.638 0.833984 9.08398C0.833984 4.52998 4.52998 0.833984 9.08398 0.833984C13.638 0.833984 17.334 4.52998 17.334 9.08398C17.3366 10.9558 16.6999 12.7724 15.5291 14.2329ZM13.6902 13.5527C14.8536 12.3564 15.5033 10.7527 15.5007 9.08398C15.5007 5.53832 12.6287 2.66732 9.08398 2.66732C5.53832 2.66732 2.66732 5.53832 2.66732 9.08398C2.66732 12.6287 5.53832 15.5007 9.08398 15.5007C10.7527 15.5033 12.3564 14.8536 13.5527 13.6902L13.6902 13.5527Z" fill="#202020"/>
</svg>
