<svg width="28" height="28" viewBox="0 0 28 28" fill="none" xmlns="http://www.w3.org/2000/svg">
<g clip-path="url(#clip0_1_13690)">
<path d="M14.0007 23.334C16.476 23.334 18.85 22.3507 20.6003 20.6003C22.3507 18.85 23.334 16.476 23.334 14.0007C23.334 11.5253 22.3507 9.15133 20.6003 7.40099C18.85 5.65065 16.476 4.66732 14.0007 4.66732C11.5253 4.66732 9.15133 5.65065 7.40099 7.40099C5.65065 9.15133 4.66732 11.5253 4.66732 14.0007C4.66732 16.476 5.65065 18.85 7.40099 20.6003C9.15133 22.3507 11.5253 23.334 14.0007 23.334ZM14.0007 25.6673C7.55715 25.6673 2.33398 20.4442 2.33398 14.0007C2.33398 7.55715 7.55715 2.33398 14.0007 2.33398C20.4442 2.33398 25.6673 7.55715 25.6673 14.0007C25.6673 20.4442 20.4442 25.6673 14.0007 25.6673ZM10.3723 15.3657L7.45798 14.4568C6.82798 14.2643 6.82448 13.8303 7.59915 13.5188L18.9543 9.13215C19.6135 8.86382 19.9868 9.20332 19.7733 10.0538L17.8402 19.1772C17.7048 19.827 17.314 19.9822 16.7715 19.6823L13.7953 17.4797L12.4082 18.819C12.2658 18.9567 12.1503 19.0745 11.931 19.1037C11.7128 19.134 11.5332 19.0687 11.4013 18.707L10.3863 15.3575L10.3723 15.3668V15.3657Z" fill="black"/>
</g>
<defs>
<clipPath id="clip0_1_13690">
<rect width="28" height="28" fill="white"/>
</clipPath>
</defs>
</svg>
